<?xml version="1.0" standalone="no"?>
<!DOCTYPE svg PUBLIC "-//W3C//DTD SVG 20010904//EN"
 "http://www.w3.org/TR/2001/REC-SVG-20010904/DTD/svg10.dtd">
<svg version="1.0" xmlns="http://www.w3.org/2000/svg"
 width="627.000000pt" height="627.000000pt" viewBox="0 0 627.000000 627.000000"
 preserveAspectRatio="xMidYMid meet">
<metadata>
Created by potrace 1.14, written by Peter Selinger 2001-2017
</metadata>
<g transform="translate(0.000000,627.000000) scale(0.100000,-0.100000)"
fill="#000000" stroke="none">
<path d="M2977 6264 c-1 -1 -40 -5 -87 -8 -47 -4 -112 -11 -145 -16 -33 -5
-78 -12 -100 -15 -135 -21 -454 -113 -570 -165 -22 -10 -75 -34 -117 -54 -206
-93 -467 -262 -645 -418 -92 -81 -260 -257 -335 -350 -173 -215 -275 -386
-405 -677 -37 -83 -95 -261 -127 -392 -34 -140 -40 -169 -52 -254 -3 -22 -7
-51 -10 -65 -29 -179 -23 -596 11 -770 3 -14 7 -43 11 -65 3 -22 9 -56 14 -75
5 -19 12 -49 15 -66 12 -73 84 -305 124 -399 44 -104 63 -145 112 -241 56
-110 170 -299 199 -332 8 -9 40 -51 71 -92 87 -116 259 -300 375 -400 224
-195 518 -372 799 -482 124 -49 347 -118 430 -133 165 -31 260 -44 365 -52
731 -55 1460 179 2002 644 337 289 577 610 756 1013 84 190 181 531 198 700 2
25 6 52 9 60 8 30 18 198 18 330 1 126 -10 336 -17 349 -2 3 -6 30 -10 59 -3
30 -19 115 -35 190 -107 503 -359 972 -722 1342 -86 87 -114 114 -218 204 -51
43 -248 185 -276 198 -14 6 -25 15 -25 20 0 4 -4 8 -9 8 -4 0 -48 23 -97 51
-208 120 -461 220 -709 279 -141 33 -224 47 -400 66 -56 6 -393 13 -398 8z"/>
<path d="M567 1712 l-27 -28 43 -69 c24 -39 92 -150 152 -248 61 -98 120 -194
132 -215 l21 -37 -35 -17 c-20 -10 -60 -27 -91 -38 -30 -11 -73 -29 -96 -39
-22 -9 -74 -30 -114 -46 -40 -16 -69 -32 -65 -36 8 -8 185 -96 480 -240 l162
-79 3 -92 3 -92 85 -34 c248 -100 654 -229 840 -268 14 -3 63 -14 110 -24 47
-10 141 -28 210 -40 162 -28 164 -28 238 -35 35 -4 71 -8 80 -10 129 -24 807
-25 937 -1 11 2 51 7 88 11 37 3 78 8 90 11 12 2 45 6 72 10 159 18 548 114
785 194 135 45 351 129 364 141 5 4 8 53 8 108 l-1 101 192 94 c106 51 254
124 330 161 l138 68 -38 17 c-21 9 -115 47 -210 85 l-172 68 32 52 c18 28 37
60 44 71 6 10 58 94 115 187 57 92 115 188 130 213 30 48 27 67 -14 93 -15 10
-28 5 -76 -27 -134 -91 -528 -332 -543 -332 -5 0 -9 -4 -9 -10 0 -5 -4 -10 -8
-10 -5 0 -65 -32 -133 -71 -68 -39 -150 -84 -182 -101 -31 -17 -60 -34 -63
-39 -3 -5 -7 -46 -10 -91 -2 -45 -8 -85 -12 -89 -17 -15 -267 -110 -390 -148
-141 -43 -417 -105 -517 -117 -33 -3 -69 -8 -80 -10 -128 -24 -662 -24 -795 1
-8 1 -40 6 -70 10 -30 4 -62 9 -70 10 -8 1 -40 6 -70 11 -30 4 -57 8 -60 9 -3
1 -32 7 -65 14 -121 26 -325 81 -456 124 -115 38 -347 124 -357 133 -2 1 -6
36 -9 76 -5 79 -9 86 -65 117 -21 12 -55 30 -75 42 -21 11 -63 35 -93 52 -207
115 -680 405 -755 462 -25 20 -27 20 -58 -13z"/>
</g>
</svg>
